<svg width="20" height="20" viewBox="0 0 20 20" fill="none" xmlns="http://www.w3.org/2000/svg">
<path fill-rule="evenodd" clip-rule="evenodd" d="M6.18132 0.575736C6.37491 0.76932 6.41291 1.06939 6.27368 1.30512C4.21962 4.78301 4.68767 9.33767 7.67519 12.3252C10.6627 15.3127 15.2174 15.7808 18.6953 13.7267C18.931 13.5875 19.2311 13.6255 19.4247 13.8191C19.6182 14.0127 19.6562 14.3127 19.517 14.5485C19.0859 15.2785 18.557 15.9661 17.9308 16.5923C13.9205 20.6026 7.41845 20.6026 3.40813 16.5923C-0.60219 12.5819 -0.602189 6.07992 3.40813 2.0696C4.03431 1.44342 4.72194 0.914518 5.45194 0.483375C5.68766 0.344153 5.98774 0.382151 6.18132 0.575736ZM4.26608 2.90872C4.26294 2.91186 4.2598 2.91499 4.25666 2.91813C0.714968 6.45982 0.714968 12.202 4.25666 15.7437C7.79835 19.2854 13.5406 19.2854 17.0823 15.7437C17.0854 15.7406 17.0885 15.7375 17.0917 15.7343C13.5789 16.8053 9.60519 15.9523 6.82666 13.1737C4.04813 10.3952 3.19509 6.42149 4.26608 2.90872Z" fill="#FF3E5B"/>
</svg>
