<svg width="20" height="20" viewBox="0 0 20 20" fill="none" xmlns="http://www.w3.org/2000/svg">
<path fill-rule="evenodd" clip-rule="evenodd" d="M9.9999 0.4C10.3313 0.4 10.5999 0.668629 10.5999 1V3.7C10.5999 4.03137 10.3313 4.3 9.9999 4.3C9.66853 4.3 9.3999 4.03137 9.3999 3.7V1C9.3999 0.668629 9.66853 0.4 9.9999 0.4ZM3.21168 3.21178C3.44599 2.97746 3.82589 2.97746 4.06021 3.21178L5.92417 5.07574C6.15848 5.31005 6.15848 5.68995 5.92417 5.92426C5.68985 6.15858 5.30995 6.15858 5.07564 5.92426L3.21168 4.06031C2.97737 3.82599 2.97737 3.44609 3.21168 3.21178ZM16.7881 3.21178C17.0224 3.44609 17.0224 3.82599 16.7881 4.06031L14.9242 5.92426C14.6899 6.15858 14.31 6.15858 14.0756 5.92426C13.8413 5.68995 13.8413 5.31005 14.0756 5.07574L15.9396 3.21178C16.1739 2.97746 16.5538 2.97746 16.7881 3.21178ZM9.9999 7C8.34305 7 6.9999 8.34315 6.9999 10C6.9999 11.6569 8.34305 13 9.9999 13C11.6568 13 12.9999 11.6569 12.9999 10C12.9999 8.34315 11.6568 7 9.9999 7ZM5.7999 10C5.7999 7.6804 7.68031 5.8 9.9999 5.8C12.3195 5.8 14.1999 7.6804 14.1999 10C14.1999 12.3196 12.3195 14.2 9.9999 14.2C7.68031 14.2 5.7999 12.3196 5.7999 10ZM0.399902 10C0.399902 9.66863 0.668531 9.4 0.999902 9.4H3.6999C4.03127 9.4 4.2999 9.66863 4.2999 10C4.2999 10.3314 4.03127 10.6 3.6999 10.6H0.999902C0.668531 10.6 0.399902 10.3314 0.399902 10ZM15.6999 10C15.6999 9.66863 15.9685 9.4 16.2999 9.4H18.9999C19.3313 9.4 19.5999 9.66863 19.5999 10C19.5999 10.3314 19.3313 10.6 18.9999 10.6H16.2999C15.9685 10.6 15.6999 10.3314 15.6999 10ZM5.92417 14.0757C6.15848 14.3101 6.15848 14.6899 5.92417 14.9243L4.0602 16.7882C3.82589 17.0225 3.44599 17.0225 3.21168 16.7882C2.97736 16.5539 2.97736 16.174 3.21168 15.9397L5.07564 14.0757C5.30995 13.8414 5.68985 13.8414 5.92417 14.0757ZM14.0756 14.0757C14.31 13.8414 14.6899 13.8414 14.9242 14.0757L16.7881 15.9397C17.0224 16.174 17.0224 16.5539 16.7881 16.7882C16.5538 17.0225 16.1739 17.0225 15.9396 16.7882L14.0756 14.9243C13.8413 14.6899 13.8413 14.3101 14.0756 14.0757ZM9.9999 15.7C10.3313 15.7 10.5999 15.9686 10.5999 16.3V19C10.5999 19.3314 10.3313 19.6 9.9999 19.6C9.66853 19.6 9.3999 19.3314 9.3999 19V16.3C9.3999 15.9686 9.66853 15.7 9.9999 15.7Z" fill="#FF3E5B"/>
</svg>
